<svg id="Capa_1" data-name="Capa 1" xmlns="http://www.w3.org/2000/svg" xmlns:xlink="http://www.w3.org/1999/xlink" viewBox="0 0 101 40"><defs><style>.cls-1{fill:url(#Degradado_sin_nombre_70);}.cls-2{fill:url(#Degradado_sin_nombre_70-2);}.cls-3{fill:url(#Degradado_sin_nombre_70-3);}.cls-4{fill:url(#Degradado_sin_nombre_70-4);}.cls-5{fill:url(#Degradado_sin_nombre_70-5);}.cls-6{fill:url(#Degradado_sin_nombre_70-6);}.cls-7{fill:none;}.cls-8{fill:#364994;}</style><linearGradient id="Degradado_sin_nombre_70" x1="29.25" y1="21.85" x2="29.25" y2="13.86" gradientUnits="userSpaceOnUse"><stop offset="0.25" stop-color="#58167d"/><stop offset="0.43" stop-color="#009bdb" stop-opacity="0.5"/><stop offset="0.6" stop-color="#b20053"/></linearGradient><linearGradient id="Degradado_sin_nombre_70-2" x1="38.62" y1="21.85" x2="38.62" y2="11.73" xlink:href="#Degradado_sin_nombre_70"/><linearGradient id="Degradado_sin_nombre_70-3" x1="48.8" y1="21.94" x2="48.8" y2="11.66" xlink:href="#Degradado_sin_nombre_70"/><linearGradient id="Degradado_sin_nombre_70-4" x1="57.34" y1="22" x2="57.34" y2="14.42" xlink:href="#Degradado_sin_nombre_70"/><linearGradient id="Degradado_sin_nombre_70-5" x1="64.72" y1="21.85" x2="64.72" y2="14.58" xlink:href="#Degradado_sin_nombre_70"/><linearGradient id="Degradado_sin_nombre_70-6" x1="72.78" y1="21.85" x2="72.78" y2="13.86" xlink:href="#Degradado_sin_nombre_70"/></defs><title>logo</title><path class="cls-1" d="M25.77,17.45l7-3.59v1l-5.87,2.94v0l5.87,2.94v1l-7-3.59Z"/><path class="cls-2" d="M36.17,11.73V16h4.89V11.73h1.32V21.85H41.06V17.1H36.17v4.75H34.86V11.73Z"/><path class="cls-3" d="M44.65,11.87a18.66,18.66,0,0,1,2.78-.21,5.75,5.75,0,0,1,4.09,1.26A4.64,4.64,0,0,1,53,16.55a5.33,5.33,0,0,1-1.46,3.93A6.19,6.19,0,0,1,47,21.94a22.32,22.32,0,0,1-2.37-.12ZM46,20.81a8.38,8.38,0,0,0,1.33.08c2.79,0,4.3-1.57,4.3-4.29,0-2.39-1.33-3.91-4.09-3.91a7.12,7.12,0,0,0-1.54.14Z"/><path class="cls-4" d="M55.39,18.46A2.34,2.34,0,0,0,57.89,21a4.8,4.8,0,0,0,2-.38l.22.95a5.85,5.85,0,0,1-2.41.45,3.37,3.37,0,0,1-3.57-3.66c0-2.2,1.29-3.92,3.4-3.92,2.37,0,3,2.08,3,3.42,0,.27,0,.48,0,.62Zm3.88-.95a1.89,1.89,0,0,0-1.83-2.15,2.2,2.2,0,0,0-2,2.15Z"/><path class="cls-5" d="M62.69,14.58l1.43,4.08a18.73,18.73,0,0,1,.58,1.87h0c.16-.6.37-1.21.61-1.87l1.41-4.08h1.38L65.3,21.85H64l-2.76-7.27Z"/><path class="cls-6" d="M76.26,18.27l-7,3.58v-1l5.91-2.94v0L69.3,14.9v-1l7,3.57Z"/><path class="cls-7" d="M77.14,29.94c-1.15,0-2.09.62-2.09,1.39s.94,1.39,2.09,1.39,2.08-.63,2.08-1.39S78.29,29.94,77.14,29.94Z"/><path class="cls-7" d="M72.33,30.39c-.77,0-1.4.42-1.4.94s.63.93,1.4.93,1.4-.42,1.4-.93S73.1,30.39,72.33,30.39Z"/><path class="cls-7" d="M76.84,2.91H24.57c-2,0-3.63,1.08-3.63,2.42V26.81c0,1.33,1.63,2.42,3.63,2.42H76.84c2,0,3.63-1.09,3.63-2.42V5.33C80.47,4,78.84,2.91,76.84,2.91Z"/><path class="cls-8" d="M81.2,0H19.8c-2,0-3.63,1.08-3.63,2.42V30.94c0,1.33,1.63,2.42,3.63,2.42H46.36v3.18H36A1.73,1.73,0,0,0,36,40H64.49a1.73,1.73,0,1,0,0-3.46H54.64V33.36H81.2c2,0,3.63-1.09,3.63-2.42V2.42C84.83,1.08,83.2,0,81.2,0ZM72.33,32.26c-.77,0-1.4-.42-1.4-.93s.63-.94,1.4-.94,1.4.42,1.4.94S73.1,32.26,72.33,32.26Zm4.81.46c-1.15,0-2.09-.63-2.09-1.39s.94-1.39,2.09-1.39,2.08.62,2.08,1.39S78.29,32.72,77.14,32.72Zm3.33-5.91c0,1.33-1.63,2.42-3.63,2.42H24.57c-2,0-3.63-1.09-3.63-2.42V5.33c0-1.34,1.63-2.42,3.63-2.42H76.84c2,0,3.63,1.08,3.63,2.42Z"/></svg>